<?xml version="1.0" standalone="no"?>
<!DOCTYPE svg PUBLIC "-//W3C//DTD SVG 20010904//EN"
 "http://www.w3.org/TR/2001/REC-SVG-20010904/DTD/svg10.dtd">
<svg version="1.0" xmlns="http://www.w3.org/2000/svg"
 width="493.000000pt" height="460.000000pt" viewBox="0 0 493.000000 460.000000"
 preserveAspectRatio="xMidYMid meet">
<metadata>
Created by potrace 1.13, written by Peter Selinger 2001-2015
</metadata>
<g transform="translate(0.000000,460.000000) scale(0.100000,-0.100000)"
fill="#000000" stroke="none">
<path d="M3272 4573 c5 -26 38 -29 38 -4 0 15 -6 21 -21 21 -14 0 -19 -5 -17
-17z"/>
<path d="M1240 4460 c0 -5 5 -10 10 -10 6 0 10 5 10 10 0 6 -4 10 -10 10 -5 0
-10 -4 -10 -10z"/>
<path d="M1325 4438 c-16 -6 -50 -19 -75 -28 -25 -10 -59 -21 -76 -24 -38 -8
-144 -101 -144 -126 0 -9 7 -23 15 -30 8 -7 15 -21 15 -31 0 -31 19 -22 81 40
48 47 73 63 127 81 37 12 72 26 77 31 20 16 189 13 280 -4 120 -23 203 -66
292 -150 54 -51 80 -86 106 -140 63 -131 76 -165 102 -264 15 -54 28 -100 31
-102 11 -11 14 10 5 45 -5 22 -17 71 -27 109 -9 39 -23 82 -30 97 -8 15 -14
35 -14 45 0 10 -6 27 -13 39 -6 12 -24 44 -39 72 -54 99 -185 211 -288 245
-101 33 -209 48 -308 43 -61 -4 -115 -12 -130 -20 -15 -8 -49 -23 -77 -32 -27
-10 -72 -33 -98 -52 -27 -18 -51 -31 -54 -28 -31 31 128 119 280 157 82 20
198 17 307 -8 256 -59 367 -154 460 -393 12 -30 27 -64 32 -75 42 -77 88 -364
88 -546 0 -124 1 -128 28 -160 38 -46 84 -87 105 -94 18 -7 24 -35 7 -35 -6 0
-37 14 -70 30 -71 36 -83 37 -98 8 -10 -22 -13 -34 -30 -118 -5 -24 -13 -35
-25 -35 -28 0 -37 -25 -37 -110 0 -89 -3 -95 -45 -119 -16 -9 -50 -28 -74 -41
-75 -42 -78 -23 -20 137 22 62 50 138 61 168 38 106 88 122 88 28 1 -69 19
-43 22 31 3 68 -10 80 -62 56 -22 -10 -44 -15 -48 -11 -7 7 6 19 76 73 42 32
72 128 72 231 l0 82 -37 0 c-21 0 -58 -6 -83 -14 -46 -14 -92 -10 -194 14 -41
10 -57 9 -105 -6 -31 -10 -74 -21 -96 -25 -50 -10 -132 -27 -164 -35 -26 -6
-191 -160 -191 -178 0 -5 12 2 28 16 48 47 82 54 329 74 85 7 99 17 38 28 -19
4 -37 11 -40 16 -8 13 66 13 99 0 14 -5 33 -7 42 -3 21 8 -36 33 -77 33 -32 0
-45 13 -26 27 21 17 105 36 119 27 7 -5 26 -9 43 -9 36 0 43 -21 25 -76 -11
-31 -17 -38 -34 -34 -25 5 -56 8 -76 6 -24 -2 10 -21 38 -21 32 0 28 -28 -5
-36 -16 -3 -38 -10 -51 -15 -13 -5 -32 -9 -44 -9 -11 0 -36 -13 -54 -30 -19
-16 -52 -39 -74 -50 -34 -18 -47 -19 -105 -11 -37 5 -73 15 -81 21 -7 7 -28
10 -46 8 -18 -3 -43 -1 -55 5 -20 9 -32 0 -114 -83 -68 -69 -100 -111 -124
-162 -18 -38 -38 -74 -43 -81 -10 -13 -54 -130 -108 -292 -43 -128 -73 -305
-94 -555 -10 -126 -10 -140 10 -210 12 -41 25 -115 31 -165 12 -116 51 -238
89 -282 17 -18 30 -40 30 -49 0 -8 20 -33 44 -57 24 -23 55 -59 69 -79 40 -60
141 -177 154 -177 7 -1 9 8 5 21 -4 15 -2 19 7 13 7 -4 11 -15 8 -25 -5 -18
69 -85 163 -149 19 -13 51 -39 71 -57 38 -33 155 -94 183 -94 8 0 23 -11 32
-25 9 -13 26 -27 37 -31 12 -3 52 -38 88 -76 52 -55 68 -78 73 -110 4 -22 14
-56 23 -76 9 -21 22 -53 29 -72 l12 -35 13 33 c7 17 17 32 21 32 12 0 28 -37
28 -64 0 -28 17 -43 31 -29 5 5 13 29 17 53 4 24 12 45 19 47 11 4 15 -5 27
-59 9 -41 36 -36 36 6 0 43 29 111 65 154 29 35 146 122 163 122 6 0 23 10 39
23 30 24 46 32 138 72 33 14 83 45 110 68 28 23 57 47 65 54 8 6 58 47 110 90
52 44 116 95 141 114 56 42 119 113 155 174 15 27 33 45 44 45 13 0 19 10 23
38 3 20 14 69 25 107 11 39 26 99 35 135 9 36 27 107 41 159 14 51 26 114 26
140 0 26 9 97 19 157 11 60 23 135 27 167 7 61 -8 211 -32 312 -19 81 -113
392 -130 433 -8 18 -14 39 -14 47 0 8 -19 50 -41 92 -23 43 -54 100 -68 126
-14 27 -34 53 -43 58 -10 6 -42 31 -70 56 -29 25 -82 59 -118 75 -36 16 -77
35 -92 43 -14 8 -35 15 -46 15 -73 0 -243 67 -254 101 -2 6 -13 10 -23 8 -17
-4 -12 -11 30 -51 51 -49 51 -50 -6 -62 -15 -3 -37 -21 -50 -41 -13 -19 -28
-33 -34 -32 -5 2 -9 26 -7 53 2 27 -2 62 -8 79 -10 26 -9 32 9 46 12 10 21 20
21 23 0 10 -45 7 -55 -3 -18 -17 -93 -30 -104 -17 -5 6 -11 40 -13 76 -5 77
-40 245 -73 344 -63 192 -170 342 -291 407 -27 15 -94 41 -149 59 -93 31 -111
34 -250 36 -89 2 -162 -2 -180 -8z m1062 -970 c7 -22 9 -55 5 -84 -6 -42 -11
-49 -32 -52 -14 -2 -32 -10 -42 -19 -20 -18 -27 -8 -28 48 -1 88 10 127 39
138 37 13 44 9 58 -31z m-213 -4 c11 -28 6 -118 -7 -144 -14 -28 -41 -30 -111
-12 -45 12 -92 63 -102 109 -8 41 1 54 34 47 15 -3 52 -1 82 4 82 14 97 14
104 -4z m-486 -22 c2 -7 -7 -12 -22 -12 -30 0 -44 17 -19 23 24 6 36 3 41 -11z
m-48 -32 c24 -15 -1 -30 -61 -35 -30 -3 -64 -7 -76 -10 -13 -3 -23 -1 -23 4 0
12 50 30 83 29 16 0 34 5 40 11 13 13 18 13 37 1z m1075 -17 c33 -2 65 -8 70
-12 6 -5 46 -21 90 -36 79 -28 125 -51 125 -64 0 -3 -57 -6 -127 -5 -176 1
-208 14 -138 55 33 20 46 39 26 39 -5 0 -32 -16 -61 -35 -54 -37 -76 -40 -170
-27 -45 6 -56 11 -58 28 -6 41 66 77 138 68 25 -3 72 -8 105 -11z m-736 -65
c64 -52 110 -78 137 -78 19 0 25 -5 22 -17 -6 -29 -54 -18 -124 28 -68 44
-118 99 -91 99 8 0 33 -15 56 -32z m551 -43 c41 -8 92 -15 113 -15 20 0 37 -4
37 -9 0 -13 -79 -21 -106 -11 -13 5 -72 11 -131 12 -116 3 -146 15 -85 35 40
13 56 12 172 -12z m-580 -19 c19 -12 44 -27 55 -34 11 -7 30 -17 43 -22 62
-27 -16 -71 -195 -109 -132 -28 -216 -26 -248 7 -36 35 -32 56 14 77 22 10 50
28 62 41 12 12 45 30 73 38 130 39 134 39 196 2z m801 -11 l34 -15 -39 2 c-22
2 -41 9 -44 16 -5 16 8 15 49 -3z m287 -32 c26 -19 102 -120 102 -135 0 -14
-37 -8 -51 8 -10 13 -24 14 -66 9 -49 -6 -55 -5 -80 23 -16 16 -36 32 -45 35
-10 4 -18 13 -18 21 0 8 -7 19 -17 24 -10 6 -14 16 -9 27 5 15 16 17 82 13 54
-4 83 -11 102 -25z m-499 6 c42 -9 55 -18 92 -65 63 -78 60 -90 -21 -85 -89 5
-183 41 -233 91 -23 24 -36 44 -31 49 22 21 118 26 193 10z m176 -9 c3 -5 21
-10 39 -10 24 0 45 -10 75 -37 51 -44 106 -112 98 -120 -4 -3 -30 -7 -58 -10
-86 -6 -129 17 -193 103 -30 40 -52 75 -48 78 9 10 80 7 87 -4z m-1250 -33
c89 -16 95 -33 21 -65 -51 -22 -234 -132 -272 -162 -19 -16 -111 -123 -158
-184 -19 -26 -32 -34 -38 -28 -7 7 -4 19 11 38 11 15 21 35 21 45 0 25 56 143
75 159 8 7 15 21 15 32 0 11 28 48 63 82 34 35 67 70 74 78 14 19 92 21 188 5z
m102 -79 l21 -23 -41 -97 c-40 -95 -42 -97 -86 -113 -25 -9 -72 -21 -104 -26
-32 -5 -67 -13 -77 -19 -51 -27 -83 1 -73 63 4 28 16 42 57 71 101 72 142 96
176 106 19 5 46 21 60 34 31 31 41 32 67 4z m453 7 c0 -10 -30 -29 -77 -51
-104 -47 -208 -114 -263 -169 -36 -36 -45 -53 -50 -91 -7 -69 -30 -70 -30 -2
l0 53 -24 -55 c-13 -30 -27 -63 -30 -74 -4 -12 -12 -16 -22 -12 -9 4 -22 2
-28 -3 -6 -5 -37 -16 -68 -25 -32 -9 -58 -19 -58 -22 0 -7 43 -43 51 -44 4 0
9 9 12 20 6 23 46 41 76 33 26 -7 26 -15 1 -81 -11 -29 -20 -61 -20 -73 0 -29
-60 -141 -74 -136 -25 8 -46 163 -24 185 9 9 9 12 0 12 -6 0 -19 -11 -28 -25
-14 -21 -15 -33 -6 -63 23 -83 42 -172 42 -198 0 -37 -65 -130 -117 -165 -61
-43 -63 -41 -78 43 -5 31 1 52 35 121 46 96 47 102 20 87 -11 -6 -20 -19 -20
-28 0 -19 -45 -90 -69 -110 -27 -21 -134 -73 -139 -67 -3 3 -1 53 6 112 11 95
15 111 49 162 40 61 130 151 151 151 22 0 98 43 84 48 -7 2 -40 -4 -73 -14
-43 -14 -65 -26 -74 -44 -8 -14 -30 -36 -49 -50 -19 -14 -39 -35 -45 -46 -5
-12 -34 -33 -64 -47 -31 -14 -63 -37 -73 -51 -9 -15 -22 -25 -27 -23 -15 5 -9
105 8 142 7 17 19 51 25 77 7 26 25 62 41 80 16 18 33 38 39 45 5 6 15 15 23
20 7 4 35 36 62 70 28 35 55 63 61 63 6 0 17 -25 24 -55 11 -44 11 -63 1 -96
-9 -30 -9 -45 -2 -52 8 -8 11 -7 11 5 0 8 9 38 21 65 23 56 52 77 119 88 25 4
87 18 139 31 58 14 99 20 106 14 7 -5 33 14 75 56 35 35 68 64 72 64 4 0 25
15 46 34 21 19 64 43 98 54 34 11 75 27 90 36 37 19 44 20 44 1z m306 -18 c6
-6 17 -34 23 -62 7 -27 23 -61 36 -75 41 -44 75 -122 77 -177 1 -29 -1 -55 -5
-59 -3 -4 -25 5 -47 20 -22 14 -46 26 -54 26 -24 0 -108 86 -124 127 -17 41
-19 137 -4 156 5 7 12 25 16 41 6 26 10 28 39 22 17 -4 37 -12 43 -19z m651
-29 c11 -13 23 -32 27 -43 4 -13 -6 -6 -29 18 -19 21 -35 40 -35 43 0 11 18 2
37 -18z m-931 -14 c-4 -14 -15 -38 -24 -52 -9 -14 -24 -46 -32 -71 -13 -38
-24 -50 -60 -68 -24 -13 -57 -23 -73 -23 -37 0 -107 -36 -107 -56 0 -9 3 -14
8 -12 12 5 94 34 145 51 26 9 47 12 47 8 0 -32 -32 -81 -89 -138 -42 -42 -61
-68 -53 -71 8 -2 32 15 54 37 22 23 47 41 56 39 11 -2 21 -34 38 -118 37 -184
28 -270 -33 -295 -16 -7 -35 -10 -40 -6 -15 10 -36 97 -28 120 4 13 2 21 -5
21 -7 0 -30 19 -51 43 -27 30 -38 51 -39 75 0 20 -5 32 -14 32 -8 0 -17 7 -20
16 -4 9 -9 14 -12 11 -3 -3 3 -28 13 -56 17 -49 17 -52 -1 -86 -11 -20 -42
-56 -69 -82 l-49 -46 -40 40 -40 40 11 54 c9 43 65 200 78 218 2 3 16 -8 31
-22 36 -34 40 -34 34 3 -3 22 3 40 23 66 37 48 21 59 -17 12 -16 -21 -34 -38
-39 -38 -15 0 -10 34 10 76 11 22 23 52 26 65 12 49 137 139 253 183 39 15 76
34 82 42 20 23 33 17 26 -12z m484 9 c25 -9 59 -28 75 -43 17 -15 40 -34 52
-42 31 -20 73 -84 73 -111 0 -12 7 -47 15 -77 8 -30 19 -123 25 -206 5 -83 12
-157 15 -165 11 -30 19 -470 9 -503 -4 -13 -2 -17 7 -14 10 3 15 30 16 103 1
53 5 100 8 103 3 3 20 -9 39 -27 61 -59 64 -171 6 -233 -28 -30 -61 -96 -51
-102 5 -3 26 23 46 59 20 36 40 65 45 65 11 0 41 -42 69 -97 26 -52 26 -101 1
-173 -11 -30 -19 -64 -20 -75 0 -19 0 -19 14 1 8 11 18 36 23 55 5 19 13 34
18 34 5 0 26 -32 46 -71 33 -63 44 -107 40 -164 -1 -20 -60 -82 -71 -75 -5 3
-14 29 -20 58 -6 28 -21 71 -33 94 l-22 42 -58 -54 c-32 -30 -64 -55 -71 -55
-23 0 -49 39 -56 84 -4 28 0 83 12 147 13 77 15 105 6 110 -7 5 -12 44 -14
106 -10 429 -16 594 -23 628 -6 28 -8 3 -9 -89 -1 -71 -3 -131 -5 -133 -2 -2
-21 4 -41 12 -29 12 -42 27 -58 62 -19 43 -19 52 -8 162 7 64 14 142 17 174 4
43 10 61 26 72 29 20 37 8 43 -60 6 -69 23 -110 24 -55 0 36 -22 175 -39 244
-17 71 -59 117 -146 162 -43 22 -80 45 -83 52 -5 16 4 15 58 -5z m550 8 c0 -5
17 -11 38 -15 21 -3 45 -14 54 -23 15 -19 44 -101 37 -106 -2 -1 -25 -10 -51
-19 -35 -12 -49 -14 -55 -6 -3 7 -1 14 5 16 16 5 15 15 -5 38 -76 84 -93 105
-93 114 0 6 16 10 35 10 19 0 35 -4 35 -9z m-564 -60 c126 -64 164 -99 164
-155 0 -15 4 -36 10 -46 30 -55 -66 -91 -120 -45 -8 7 -28 15 -45 17 -23 2
-32 10 -38 33 -5 17 -13 37 -18 45 -5 8 -16 29 -23 45 -8 17 -30 57 -50 89
-58 96 -43 98 120 17z m-771 35 c17 -12 14 -16 -36 -53 -30 -22 -60 -47 -68
-56 -16 -20 -82 -40 -94 -28 -4 4 6 38 23 74 22 47 37 67 53 70 48 9 104 6
122 -7z m990 -11 c29 -9 57 -21 63 -28 5 -7 19 -45 32 -84 16 -52 20 -83 15
-110 -9 -50 -32 -103 -43 -103 -12 0 -32 77 -32 120 0 17 -6 45 -14 63 -13 30
-84 107 -131 142 -19 14 -18 14 18 15 22 0 63 -7 92 -15z m242 -26 c42 -13 49
-48 33 -165 -14 -112 -22 -126 -45 -91 -9 15 -23 27 -31 27 -7 0 -20 11 -29
23 -23 35 -77 188 -71 202 6 16 98 18 143 4z m-804 -62 c3 -7 5 -53 6 -102 0
-50 5 -263 11 -475 11 -407 4 -660 -17 -668 -10 -3 -13 17 -14 75 -1 57 -3 70
-9 48 -4 -16 -8 -51 -9 -77 -1 -41 -5 -49 -29 -62 -33 -17 -58 -44 -48 -53 3
-3 14 1 24 10 10 10 27 17 37 17 16 0 17 -7 11 -67 -3 -40 -2 -74 4 -83 9 -13
10 -13 11 0 1 8 4 2 8 -15 4 -16 3 -50 -1 -75 -4 -25 -13 -99 -19 -165 -5 -66
-12 -138 -14 -160 -2 -22 -8 -71 -14 -110 -6 -38 -11 -98 -11 -132 0 -60 -12
-89 -24 -57 -3 9 -6 31 -6 50 0 23 -5 34 -14 34 -10 0 -17 16 -21 48 -12 90
-27 147 -49 182 -46 71 -56 90 -56 100 0 7 26 42 59 78 32 37 66 81 74 97 37
69 48 98 44 119 -4 20 -5 20 -13 -4 -18 -57 -88 -177 -121 -209 -43 -40 -52
-34 -62 45 -10 67 -8 70 69 179 47 67 62 105 40 105 -6 0 -15 -12 -21 -27 -6
-16 -27 -50 -48 -78 -21 -27 -43 -60 -50 -73 -27 -50 -37 10 -15 89 3 10 -3
18 -14 21 -10 3 -24 23 -32 47 -7 23 -18 45 -23 48 -13 8 2 -55 24 -100 16
-30 17 -42 8 -60 -15 -29 -50 -67 -62 -67 -6 0 -25 18 -44 40 -19 22 -41 40
-48 40 -20 0 -45 40 -45 72 0 18 -5 28 -14 28 -8 0 -21 8 -28 18 -7 9 -31 27
-53 39 -49 27 -54 46 -54 228 -1 165 0 144 -10 259 -12 125 -3 219 21 224 10
2 35 -14 57 -35 45 -44 60 -105 43 -176 -32 -130 -34 -155 -16 -210 9 -28 25
-63 36 -76 20 -26 19 -48 -8 -129 -17 -53 -18 -85 -2 -80 7 3 14 19 15 38 4
44 22 112 35 128 6 6 23 12 39 12 33 0 41 -13 59 -102 6 -32 16 -60 21 -63 12
-8 11 13 -5 110 -15 87 -13 96 52 183 30 39 42 41 42 5 0 -16 12 -63 26 -107
l26 -78 -19 -37 c-22 -40 -48 -149 -38 -159 10 -10 24 19 37 78 13 61 45 106
110 158 24 18 55 52 70 75 40 61 46 67 64 60 15 -6 16 23 10 323 -3 181 -8
338 -11 349 -6 27 -13 314 -6 320 8 9 19 5 24 -8z m917 -13 c0 -16 -16 -19
-25 -4 -8 13 4 32 16 25 5 -4 9 -13 9 -21z m1 -58 c34 -50 47 -102 54 -216 7
-123 -3 -177 -45 -229 -35 -43 -53 -48 -58 -15 -2 10 -7 28 -12 39 -16 37 -27
191 -18 241 5 27 14 88 20 137 7 51 16 86 23 84 5 -2 22 -21 36 -41z m164 -54
c19 -61 21 -74 9 -79 -9 -3 -12 -13 -8 -29 9 -36 -10 -29 -29 11 -9 19 -13 35
-8 35 5 0 11 -6 14 -12 2 -7 8 -10 12 -6 9 9 -25 65 -59 97 -32 30 -33 48 -3
54 42 8 49 2 72 -71z m-1015 27 c0 -17 72 -79 115 -99 22 -10 55 -32 73 -50
32 -33 33 -34 30 -114 -3 -75 -5 -81 -29 -95 -24 -13 -32 -12 -98 15 -121 49
-115 40 -119 208 -4 129 -2 146 12 146 9 0 16 -5 16 -11z m959 -65 c3 -16 1
-17 -13 -5 -19 16 -21 34 -3 29 6 -3 14 -13 16 -24z m-272 -36 c48 -48 53 -56
53 -98 1 -25 9 -92 19 -150 19 -104 16 -130 -13 -130 -6 0 -24 13 -41 30 -16
16 -51 48 -77 70 -25 23 -54 57 -63 76 -16 33 -16 39 0 87 9 29 25 67 36 85
10 18 19 44 19 58 0 13 3 24 7 24 4 0 31 -23 60 -52z m295 -50 c72 -119 78
-142 78 -288 l0 -130 -33 0 c-37 0 -52 19 -83 105 -15 41 -18 82 -19 218 0 92
3 167 7 167 3 0 26 -33 50 -72z m-637 31 c37 -18 44 -27 48 -58 2 -20 -2 -59
-9 -86 -7 -28 -15 -71 -18 -95 -2 -25 -5 -46 -5 -47 -3 -12 -24 2 -33 22 -6
13 -28 36 -49 50 l-39 25 0 89 c0 49 3 96 6 105 9 22 49 20 99 -5z m-451 -26
c3 -21 6 -53 6 -72 0 -35 -49 -152 -78 -183 -8 -10 -11 -18 -5 -18 15 0 50 42
62 73 18 46 31 21 31 -56 0 -61 -4 -78 -25 -109 -14 -20 -25 -41 -25 -46 0
-14 -103 -112 -117 -112 -11 0 -12 13 -8 53 11 100 15 114 40 137 29 28 32 38
8 36 -13 -1 -19 7 -21 29 -1 17 -10 72 -19 124 l-16 94 24 19 c30 23 110 67
125 68 6 0 14 -17 18 -37z m-587 -125 c-3 -8 -6 -5 -6 6 -1 11 2 17 5 13 3 -3
4 -12 1 -19z m708 -58 c3 -5 14 -10 24 -10 40 0 67 -42 80 -124 21 -144 7
-249 -39 -291 -24 -22 -70 -9 -87 26 -10 20 -18 249 -14 377 1 31 22 45 36 22z
m1101 -46 c3 -19 4 -38 0 -41 -7 -7 -36 59 -36 83 0 29 29 -4 36 -42z m-823
-16 c18 -18 40 -53 51 -78 10 -25 27 -62 37 -83 23 -47 24 -71 4 -128 -19 -54
-38 -69 -84 -69 -30 1 -41 8 -71 45 -19 25 -43 48 -52 51 -21 6 -28 42 -31
163 l-2 94 50 17 c67 23 62 24 98 -12z m354 -36 l51 -47 -3 -80 c-4 -78 -4
-79 6 -27 9 47 15 54 47 69 20 9 40 18 43 20 3 2 11 -54 18 -124 7 -71 19
-157 28 -193 14 -59 14 -69 1 -95 -9 -17 -23 -65 -33 -107 -9 -43 -21 -75 -26
-72 -5 3 -16 20 -25 37 -9 18 -25 42 -36 54 -14 14 -19 31 -16 47 3 15 -1 63
-8 108 -7 45 -11 103 -8 128 l4 45 -12 -39 c-7 -22 -18 -41 -24 -43 -6 -2 -24
10 -41 27 -28 28 -31 38 -37 122 -11 163 -8 218 13 218 3 0 29 -22 58 -48z
m-1084 -7 c21 -26 30 -52 37 -109 9 -68 7 -81 -19 -162 -30 -92 -45 -111 -55
-71 -8 33 -75 107 -96 107 -21 0 -30 27 -30 91 0 37 5 50 30 74 16 16 42 46
56 67 15 21 32 38 38 38 6 0 23 -16 39 -35z m1571 -65 c15 -93 -1 -351 -24
-374 -12 -12 -12 -12 -15 129 -1 61 -5 161 -7 223 l-5 113 23 -28 c12 -15 25
-44 28 -63z m-2340 62 c2 -4 -2 -37 -9 -72 -8 -36 -14 -84 -15 -106 0 -51 -28
-115 -75 -173 -29 -36 -45 -71 -32 -71 1 0 20 24 41 53 37 52 88 91 168 131
46 22 64 17 73 -23 8 -39 -24 -94 -100 -174 -66 -69 -85 -111 -85 -187 0 -44
-7 -74 -30 -122 -16 -34 -30 -69 -30 -76 0 -8 -6 -12 -12 -10 -9 3 -17 44 -24
114 -6 60 -18 132 -26 161 -12 43 -13 57 -2 82 11 27 11 31 -2 31 -13 0 -14
14 -9 88 3 48 11 127 19 175 14 94 33 126 101 168 33 21 41 23 49 11z m2136
-54 c43 -91 45 -112 16 -217 -34 -124 -51 -144 -81 -97 -14 21 -38 214 -37
289 1 26 41 87 58 87 8 0 28 -28 44 -62z m-1734 -45 c-11 -11 -19 6 -11 24 8
17 8 17 12 0 3 -10 2 -21 -1 -24z m715 -50 c4 -153 -2 -236 -21 -272 -19 -37
-153 -181 -169 -181 -11 0 -49 104 -57 157 -11 70 2 108 53 158 26 25 52 45
59 45 16 0 90 82 99 109 11 36 35 26 36 -16z m-205 -60 c-3 -31 -10 -59 -17
-63 -6 -4 -21 -23 -33 -42 -11 -19 -32 -52 -45 -73 l-24 -37 -13 25 c-11 21
-10 30 6 63 11 21 20 46 20 55 0 33 38 105 61 116 45 22 50 17 45 -44z m1355
15 c17 -31 16 -247 -1 -278 -17 -34 -61 -80 -76 -80 -14 0 -24 23 -24 56 0 13
-4 24 -9 24 -5 0 -8 -46 -7 -102 0 -59 -5 -126 -13 -157 -13 -52 -61 -121 -85
-121 -13 0 -66 101 -66 127 0 20 39 151 52 177 6 11 18 42 28 70 16 47 20 51
49 50 27 -2 31 1 31 25 0 29 46 205 61 234 12 21 42 9 60 -25z m-1856 2 c23
-44 20 -125 -5 -143 -12 -8 -33 -34 -49 -58 -33 -52 -96 -91 -127 -79 -21 8
-34 45 -34 99 0 22 11 34 60 66 42 27 69 55 92 92 18 29 36 53 40 53 4 0 14
-13 23 -30z m1269 -2 c17 -7 28 -22 32 -44 10 -53 0 -312 -12 -324 -8 -8 -26
19 -67 101 -51 103 -55 115 -43 138 7 14 17 44 21 66 8 46 22 75 35 75 5 0 20
-5 34 -12z m-261 -89 c27 -41 27 -42 16 -132 -13 -118 -25 -195 -35 -227 l-7
-25 25 23 c13 12 27 22 31 22 4 0 21 -28 37 -62 26 -54 29 -66 19 -95 -10 -31
-95 -113 -118 -113 -11 0 -17 84 -14 172 1 26 -2 35 -11 32 -23 -9 -50 48 -58
121 -22 197 -22 188 6 229 14 22 26 43 26 49 0 15 31 47 45 47 6 0 24 -18 38
-41z m-762 4 c40 -34 99 -125 99 -153 0 -20 -23 -73 -42 -96 -10 -14 -73 1
-99 23 -26 22 -43 97 -36 162 11 101 22 110 78 64z m-475 -167 l16 -59 -26
-24 c-28 -26 -32 -39 -14 -45 8 -3 9 -16 1 -54 -15 -68 -54 -174 -64 -174 -10
0 -52 -80 -46 -87 3 -2 20 16 38 41 18 25 34 44 36 42 3 -2 9 -30 14 -63 6
-32 13 -73 16 -91 3 -18 0 -38 -5 -45 -6 -7 -16 -33 -21 -59 -6 -25 -15 -58
-21 -73 -9 -23 -13 -25 -26 -14 -21 17 -46 68 -39 79 9 15 -7 140 -17 134 -5
-4 -7 -27 -3 -54 4 -30 3 -50 -4 -55 -14 -8 -55 39 -82 95 -27 56 -22 106 19
191 16 35 33 73 36 85 4 13 26 29 61 43 30 13 55 27 55 32 0 12 -11 11 -40 -6
-14 -8 -35 -14 -47 -15 -19 0 -23 5 -23 30 0 42 23 84 86 156 30 34 54 65 54
71 0 5 6 15 13 22 10 10 13 7 15 -16 1 -15 9 -54 18 -87z m1360 106 c16 -11
64 -121 64 -148 0 -13 -11 -49 -25 -80 -14 -31 -25 -69 -25 -85 0 -33 -16 -79
-28 -79 -4 0 -13 20 -20 44 -6 25 -25 58 -41 75 -26 27 -28 33 -20 73 4 23 8
70 9 104 0 33 6 67 13 76 19 24 53 34 73 20z m-296 -12 c15 -8 18 -17 13 -40
-3 -17 2 -68 12 -114 l18 -85 -52 -52 c-30 -32 -54 -49 -60 -43 -4 5 -4 52 1
104 6 52 10 124 10 160 0 36 2 68 5 73 6 10 31 9 53 -3z m-820 -133 c0 -116
-1 -125 -22 -143 -60 -52 -57 -57 -53 75 3 113 4 123 29 156 15 19 31 35 37
35 5 0 9 -52 9 -123z m-100 -67 c0 -91 -19 -140 -68 -182 -16 -14 -42 -43 -57
-66 -30 -46 -40 -51 -49 -26 -11 29 -6 79 14 137 11 31 20 69 20 84 0 40 32
87 76 111 62 33 64 31 64 -58z m1970 -10 c0 -27 -9 -86 -20 -132 -12 -46 -25
-110 -30 -142 -10 -69 -30 -99 -30 -46 0 19 -12 60 -26 90 -23 48 -25 64 -20
124 5 68 6 69 58 116 29 26 56 46 61 43 4 -2 7 -26 7 -53z m-644 -10 c5 -39 3
-49 -20 -73 -30 -32 -63 -33 -58 -2 5 35 56 135 64 127 4 -4 11 -28 14 -52z
m66 -69 c-2 -24 2 -48 9 -57 10 -12 8 -18 -9 -34 -19 -18 -24 -31 -59 -150
-24 -83 -31 -100 -45 -100 -20 0 -58 63 -58 96 0 16 -5 47 -11 69 -14 51 9 99
63 126 21 11 50 37 65 60 32 49 49 46 45 -10z m-419 -18 c46 -52 71 -207 43
-268 -9 -18 -16 -41 -16 -52 0 -10 -10 -37 -22 -60 -12 -23 -19 -45 -16 -48
14 -14 26 7 43 69 15 56 23 69 57 91 21 14 57 44 79 66 54 54 64 43 54 -55 -7
-77 -53 -196 -88 -224 -20 -17 -22 -12 -37 78 -7 41 -17 80 -22 85 -14 14 1
-120 18 -174 8 -24 12 -51 9 -58 -2 -8 0 -24 6 -35 21 -39 30 -147 16 -176 -8
-15 -34 -67 -58 -115 -24 -48 -51 -95 -59 -105 -9 -9 -26 -34 -39 -54 -12 -21
-29 -38 -36 -38 -18 0 -34 77 -23 108 4 13 8 42 8 65 0 23 7 74 16 112 34 155
44 210 42 254 -1 25 2 56 6 68 7 18 5 21 -11 17 -15 -4 -22 5 -36 52 -10 32
-29 80 -43 107 -19 39 -24 64 -24 124 0 72 2 77 36 117 19 22 39 47 45 54 14
17 33 15 52 -5z m-863 -72 c0 -43 4 -100 9 -127 5 -27 11 -71 12 -99 l3 -50
-47 -2 c-44 -2 -47 -1 -53 25 -10 49 -35 126 -55 176 -18 41 -19 53 -8 72 7
13 19 24 28 24 9 0 32 14 51 30 54 46 60 41 60 -49z m100 -71 c62 -52 83 -96
74 -155 -7 -51 2 -60 17 -16 15 43 36 46 69 11 33 -35 38 -56 30 -135 -5 -57
-6 -60 -30 -57 -33 5 -70 29 -70 47 0 8 -9 19 -20 25 -11 6 -27 25 -36 43 -9
18 -31 48 -49 67 -31 32 -34 41 -41 123 -4 48 -3 87 1 87 4 0 29 -18 55 -40z
m1190 5 c0 -14 -4 -25 -10 -25 -5 0 -10 11 -10 25 0 14 5 25 10 25 6 0 10 -11
10 -25z m-1447 -12 c22 -44 59 -165 60 -198 0 -17 -10 -51 -22 -76 -13 -26
-21 -53 -18 -60 2 -8 13 5 24 31 25 55 37 66 90 78 44 10 53 4 53 -38 0 -10 6
-25 14 -32 8 -8 26 -38 41 -67 l27 -53 -22 -81 c-23 -84 -23 -168 -2 -189 17
-17 25 -3 13 21 -21 39 10 221 38 221 9 0 36 -54 65 -130 18 -47 66 -114 66
-92 0 15 -49 110 -60 117 -5 3 -12 20 -15 38 -10 45 -50 120 -85 160 -32 37
-67 154 -51 170 6 6 21 -9 36 -34 57 -93 76 -113 132 -143 51 -28 61 -38 93
-101 19 -39 46 -85 58 -102 l23 -33 -28 -24 c-33 -29 -24 -46 12 -22 20 13 26
14 30 4 3 -10 12 -97 15 -140 0 -5 4 -8 9 -8 5 0 8 39 5 91 -3 77 -8 95 -29
123 -14 18 -25 43 -25 54 0 12 -6 22 -13 22 -16 0 -47 61 -58 115 -12 63 0
149 26 181 23 29 23 29 44 10 12 -11 21 -27 21 -37 0 -10 6 -43 14 -73 8 -31
12 -71 9 -91 -4 -22 -2 -35 6 -35 16 0 62 -77 83 -139 21 -64 23 -127 3 -161
-8 -14 -14 -34 -14 -45 0 -19 1 -19 16 3 8 12 19 22 24 22 11 0 49 -106 54
-150 2 -19 9 -62 14 -95 20 -117 15 -235 -10 -235 -16 0 -29 48 -22 82 5 27 4
30 -12 25 -10 -4 -24 -2 -31 4 -18 15 -19 -13 -2 -41 9 -14 10 -25 3 -36 -25
-39 -40 -7 -54 111 -4 33 -12 69 -18 80 -7 11 -26 50 -42 86 -35 76 -66 119
-87 119 -10 0 -5 -13 16 -42 16 -22 30 -47 30 -53 0 -7 7 -18 15 -25 16 -13
21 -50 7 -50 -5 0 -25 17 -45 38 -63 64 -88 83 -126 97 -58 20 -107 53 -119
80 -10 22 -14 24 -32 13 -19 -12 -25 -9 -55 24 -19 21 -48 44 -64 52 -26 14
-30 22 -36 79 -8 69 0 91 65 194 30 46 39 80 20 68 -5 -3 -10 -13 -10 -21 0
-8 -11 -26 -24 -41 -13 -14 -39 -56 -57 -94 -51 -103 -89 -92 -89 25 0 69 -6
86 -71 221 -10 22 -19 53 -19 68 0 16 -5 37 -10 48 -8 14 -6 27 6 51 27 54 54
88 69 88 8 0 21 -12 28 -27z m1885 -2 c20 -12 42 -110 38 -171 -2 -30 -10 -72
-19 -93 -19 -45 -55 -97 -67 -97 -4 0 -11 26 -14 58 -4 50 -19 162 -28 215 -2
10 13 35 32 56 39 44 40 44 58 32z m-460 -84 c-23 -112 -23 -110 -1 -103 20 7
44 -18 76 -81 26 -49 21 -69 -24 -105 -22 -18 -54 -46 -71 -61 -16 -15 -43
-30 -59 -34 -16 -3 -26 -10 -23 -15 3 -5 19 -6 34 -3 22 5 31 2 39 -14 17 -31
14 -81 -6 -88 -10 -4 -29 -19 -43 -33 -40 -42 -109 -92 -121 -88 -6 2 -17 21
-24 42 -13 36 -11 41 22 107 20 38 42 69 50 69 9 0 12 7 8 23 -4 16 3 33 28
62 45 53 88 173 60 168 -17 -4 -16 7 5 75 11 31 25 77 31 101 16 55 32 37 19
-22z m-126 -84 c37 -36 36 -67 -8 -149 -21 -40 -33 -75 -30 -87 3 -12 -3 -26
-14 -36 -10 -9 -25 -36 -33 -61 -8 -25 -21 -45 -28 -45 -9 0 -16 17 -20 45 -4
25 -10 62 -14 83 -6 31 -4 44 13 66 24 32 93 167 91 178 -3 17 1 33 8 33 4 0
20 -12 35 -27z m358 -25 c11 -24 20 -48 20 -55 0 -12 -102 -83 -119 -83 -4 0
-13 18 -20 40 l-12 41 47 49 c27 28 52 50 56 50 5 0 18 -19 28 -42z m-731 -28
c12 -32 29 -93 38 -135 14 -64 15 -84 4 -123 -7 -26 -16 -51 -20 -55 -4 -4
-27 21 -49 57 -41 62 -42 67 -37 128 17 211 27 231 64 128z m-1013 -37 c9 -21
25 -57 35 -81 18 -41 26 -132 12 -145 -7 -8 -68 28 -96 56 -17 17 -18 28 -13
76 9 75 25 131 37 131 5 0 17 -17 25 -37z m1444 -3 c0 -5 -5 -10 -11 -10 -5 0
-7 5 -4 10 3 6 8 10 11 10 2 0 4 -4 4 -10z m450 -85 c0 -56 -4 -67 -32 -103
-35 -44 -60 -60 -66 -43 -7 20 -20 11 -27 -17 -8 -39 -260 -261 -277 -244 -5
5 0 29 10 53 20 45 21 88 8 189 -6 46 -5 58 11 73 30 30 78 67 85 67 3 0 14 3
24 7 15 6 17 1 11 -51 -4 -44 -15 -72 -46 -120 -45 -69 -52 -89 -20 -60 43 38
78 104 89 165 16 87 24 104 59 119 52 21 61 10 61 -75 0 -88 15 -93 26 -9 5
42 14 65 36 90 17 19 34 31 39 28 5 -3 9 -34 9 -69z m-490 1 c0 -3 -4 -8 -10
-11 -5 -3 -10 -1 -10 4 0 6 5 11 10 11 6 0 10 -2 10 -4z m-423 -169 c43 -85
45 -92 29 -140 -8 -23 -17 -89 -21 -147 -7 -99 -6 -106 14 -124 22 -20 28 -46
11 -46 -5 0 -14 8 -19 18 -8 13 -10 4 -11 -40 0 -31 5 -60 10 -63 16 -10 12
-28 -17 -73 -30 -46 -53 -55 -53 -19 0 13 -6 29 -12 35 -9 9 -13 67 -13 208 0
108 3 198 6 200 3 2 10 56 13 121 10 160 15 165 63 70z m-827 -77 c0 -23 -17
-25 -42 -6 -26 19 -22 26 12 26 23 0 30 -4 30 -20z m1340 -30 c0 -5 -10 -48
-22 -94 -19 -77 -25 -88 -58 -110 -44 -29 -107 -48 -116 -35 -3 5 -1 24 5 42
6 17 13 44 16 59 3 14 19 37 36 50 17 13 49 40 72 60 41 37 67 48 67 28z
m-215 -86 c16 -44 17 -50 1 -105 -8 -32 -13 -65 -10 -73 4 -11 -2 -19 -18 -25
-14 -5 -62 -35 -108 -66 -110 -75 -115 -77 -107 -37 4 18 15 45 25 60 61 90
80 121 96 159 10 23 27 50 37 59 11 10 19 21 19 26 0 15 32 58 40 53 4 -2 15
-25 25 -51z"/>
<path d="M1295 2450 c-20 -21 -26 -33 -18 -41 7 -7 17 -2 33 20 30 44 21 58
-15 21z"/>
<path d="M2111 1304 c0 -11 3 -14 6 -6 3 7 2 16 -1 19 -3 4 -6 -2 -5 -13z"/>
<path d="M2099 1248 c-8 -44 -9 -128 0 -128 7 0 11 24 11 65 0 36 -2 65 -5 65
-3 0 -5 -1 -6 -2z"/>
<path d="M2062 930 c0 -19 2 -27 5 -17 2 9 2 25 0 35 -3 9 -5 1 -5 -18z"/>
<path d="M2391 1078 c-18 -62 -58 -139 -89 -170 -31 -33 -15 -38 19 -5 26 24
60 89 79 152 7 22 15 46 17 53 3 6 1 12 -4 12 -6 0 -15 -19 -22 -42z"/>
<path d="M1750 900 c0 -5 7 -13 15 -18 9 -4 20 -21 24 -38 9 -27 9 -28 10 -4
0 14 -8 35 -18 48 -20 23 -31 28 -31 12z"/>
<path d="M1960 781 c0 -7 6 -24 14 -39 13 -25 28 -113 30 -170 1 -12 6 -21 11
-20 27 7 -9 202 -42 229 -9 9 -13 8 -13 0z"/>
<path d="M1910 761 c0 -12 5 -21 10 -21 6 0 10 6 10 14 0 8 -4 18 -10 21 -5 3
-10 -3 -10 -14z"/>
<path d="M2162 3577 c2 -15 8 -26 13 -25 12 3 8 29 -7 43 -6 7 -8 1 -6 -18z"/>
<path d="M1850 3435 c0 -8 7 -15 15 -15 9 0 12 6 9 15 -4 8 -10 15 -15 15 -5
0 -9 -7 -9 -15z"/>
<path d="M3895 3324 c-20 -15 -61 -15 -100 1 -20 8 -20 8 -1 -13 28 -32 52
-36 105 -16 84 30 108 2 122 -143 9 -96 5 -147 -23 -273 -15 -70 -19 -128 -8
-135 13 -8 1 -35 -14 -29 -9 4 -15 -11 -20 -48 -3 -29 -8 -66 -11 -83 -29
-177 -53 -487 -54 -685 0 -104 1 -112 13 -85 l13 30 8 -27 c9 -35 0 -59 -18
-52 -14 5 -18 -87 -19 -416 -1 -171 -19 -510 -30 -543 -11 -34 -14 -38 -37
-31 -57 15 -119 9 -161 -18 -26 -16 -31 -23 -18 -26 9 -2 30 4 47 12 71 37
180 4 181 -56 0 -19 10 -18 64 5 61 27 76 23 76 -18 0 -28 -5 -38 -22 -44 -13
-5 -27 -5 -33 -1 -21 16 -105 -10 -105 -32 0 -9 -3 -9 -12 0 -20 20 -28 14
-28 -20 0 -25 3 -29 12 -20 16 16 28 15 28 -1 0 -21 -52 -63 -95 -78 -31 -10
-35 -14 -19 -17 12 -2 24 -12 27 -22 6 -25 47 -15 47 11 0 15 5 17 30 13 20
-5 30 -3 30 6 0 8 9 11 25 8 30 -6 42 7 19 20 -24 14 -8 32 29 32 29 0 30 1
11 14 -25 19 -8 50 30 54 22 3 26 -1 26 -21 0 -23 -50 -130 -70 -151 -5 -5
-19 -2 -34 8 -38 24 -53 19 -26 -9 20 -22 21 -25 6 -31 -10 -4 -24 1 -35 10
-25 22 -32 20 -25 -8 7 -28 -4 -32 -101 -31 -81 0 -121 22 -157 87 -20 34 -71
68 -85 55 -3 -3 10 -22 28 -41 19 -19 49 -53 67 -74 51 -63 144 -87 235 -61
20 5 37 14 37 19 0 6 8 10 19 10 10 0 24 7 31 15 7 8 22 15 34 15 16 0 30 16
54 60 19 33 37 60 42 60 5 0 9 8 9 18 0 9 0 51 1 93 1 42 -5 111 -13 155 -15
74 -19 107 -32 274 -3 36 -12 146 -21 245 -26 297 -25 698 0 1060 2 22 8 81
15 130 17 139 20 164 31 260 6 50 13 108 16 130 3 22 8 109 10 192 5 129 3
160 -11 197 -27 70 -91 97 -140 60z m76 -757 c-13 -13 -14 5 -3 43 l7 25 3
-29 c2 -16 -1 -33 -7 -39z m-10 -104 c-9 -16 -10 -15 -11 8 0 14 3 29 8 33 12
12 14 -22 3 -41z m-14 -170 c-3 -10 -5 -2 -5 17 0 19 2 27 5 18 2 -10 2 -26 0
-35z m-8 -100 c0 -10 -4 -27 -9 -38 -7 -16 -9 -13 -9 18 -1 20 4 37 9 37 6 0
10 -8 9 -17z m-12 -585 c-3 -7 -5 -2 -5 12 0 14 2 19 5 13 2 -7 2 -19 0 -25z
m3 -80 c0 -18 5 -89 11 -158 12 -157 22 -336 21 -372 0 -16 -1 -34 -1 -40 -2
-45 14 -155 25 -176 17 -32 12 -40 -44 -64 -44 -20 -46 -20 -59 -2 -9 12 -12
31 -8 54 25 146 33 308 35 698 0 54 4 92 10 92 6 0 10 -15 10 -32z m-40 -948
c0 -5 -4 -10 -10 -10 -5 0 -10 5 -10 10 0 6 5 10 10 10 6 0 10 -4 10 -10z"/>
<path d="M3931 854 c0 -11 3 -14 6 -6 3 7 2 16 -1 19 -3 4 -6 -2 -5 -13z"/>
<path d="M4895 2231 c-3 -5 -1 -12 5 -16 5 -3 10 1 10 9 0 18 -6 21 -15 7z"/>
<path d="M3600 1492 c0 -5 11 -14 25 -20 19 -9 25 -19 25 -42 0 -42 -15 -68
-67 -117 -36 -33 -44 -47 -41 -70 l3 -28 70 2 c39 1 73 2 78 3 10 0 9 80 -2
80 -5 0 -11 -6 -14 -14 -6 -16 -61 -26 -79 -15 -9 6 3 22 39 56 29 26 55 59
58 73 8 36 -32 94 -68 98 -15 2 -27 -1 -27 -6z"/>
<path d="M3590 1424 c0 -24 -2 -25 -32 -19 -32 7 -32 7 -16 -16 23 -36 53 -36
68 0 13 32 8 61 -10 61 -5 0 -10 -12 -10 -26z"/>
<path d="M4110 750 c0 -5 7 -10 15 -10 8 0 15 5 15 10 0 6 -7 10 -15 10 -8 0
-15 -4 -15 -10z"/>
<path d="M1413 678 c-35 -76 -49 -128 -34 -128 5 0 11 9 14 20 7 27 27 25 28
-2 3 -73 0 -100 -11 -113 -21 -25 4 -45 48 -38 47 7 49 9 29 31 -14 15 -17 40
-17 123 0 103 -7 129 -35 129 -7 0 -16 -10 -22 -22z"/>
<path d="M3579 669 c-23 -36 -29 -58 -18 -64 10 -7 42 60 37 77 -2 6 -11 0
-19 -13z"/>
<path d="M4070 505 c13 -16 50 -21 50 -6 0 5 -10 11 -22 15 -36 9 -41 7 -28
-9z"/>
</g>
</svg>
